<?xml version="1.0" encoding="UTF-8" standalone="no"?>
<!-- Created with Inkscape (http://www.inkscape.org/) -->

<svg
   width="192"
   height="39.964729"
   viewBox="0 0 50.799998 10.574001"
   version="1.1"
   id="svg319"
   inkscape:version="1.1.1 (3bf5ae0d25, 2021-09-20)"
   xmlns:inkscape="http://www.inkscape.org/namespaces/inkscape"
   xmlns:sodipodi="http://sodipodi.sourceforge.net/DTD/sodipodi-0.dtd"
   xmlns="http://www.w3.org/2000/svg"
   xmlns:svg="http://www.w3.org/2000/svg">
  <sodipodi:namedview
     id="namedview321"
     pagecolor="#ffffff"
     bordercolor="#666666"
     borderopacity="1.0"
     inkscape:pageshadow="2"
     inkscape:pageopacity="0.0"
     inkscape:pagecheckerboard="0"
     inkscape:document-units="mm"
     showgrid="false"
     fit-margin-top="0"
     fit-margin-left="0"
     fit-margin-right="0"
     fit-margin-bottom="0"
     units="px"
     inkscape:snap-page="true"
     inkscape:snap-nodes="false"
     inkscape:snap-object-midpoints="false"
     inkscape:snap-center="false"
     inkscape:snap-bbox="true"
     inkscape:bbox-paths="false"
     inkscape:bbox-nodes="true"
     inkscape:zoom="2.8934905"
     inkscape:cx="93.485707"
     inkscape:cy="41.472402"
     inkscape:window-width="1525"
     inkscape:window-height="1030"
     inkscape:window-x="-3"
     inkscape:window-y="8"
     inkscape:window-maximized="0"
     inkscape:current-layer="layer1" />
  <defs
     id="defs316" />
  <g
     inkscape:label="레이어 1"
     inkscape:groupmode="layer"
     id="layer1"
     transform="translate(-12.626707,-113.55942)">
    <g
       id="g145897"
       transform="matrix(0.08615135,0,0,0.08615135,122.4167,123.17455)"
       style="fill:#060002;fill-opacity:0.662745">
      <path
         id="Selection #1"
         style="fill:#060002;fill-opacity:0.662745;stroke:none;stroke-width:0.617961;stroke-miterlimit:4;stroke-dasharray:none"
         d="m -1091.7793,-112.33398 c -3.6344,0.0435 -8.1368,1.36604 -11.4629,2.79492 -10.4112,4.47041 -18.9241,13.725039 -22.0488,24.675779 -1.7806,6.237234 -1.4806,10.669924 -1.4688,16.996093 l 0.1973,2.964844 0.207,3.753906 2.3633,46.246094 0.1797,2.173828 c 0.089,1.298437 -0.1878,2.474131 0.8516,3.5136722 1.5514,1.5494287 3.9131,0.4575085 4.498,-0.5820312 0.2513,-0.450599 0.2012,-1.232253 0.2012,-1.746094 l -0.1973,-2.568359 -2.7676,-52.570313 -0.1972,-4.15039 c -0.01,-3.235217 0.1773,-7.12315 0.873,-10.277344 0.7906,-3.585025 2.2962,-6.947652 4.1875,-10.078125 1.2886,-2.132441 3.2546,-4.57123 5.0195,-6.324219 2.2055,-2.189749 5.1652,-4.384921 7.9043,-5.869141 9.2157,-4.99611 18.7331,-4.55313 27.668,0.80859 1.678,1.00594 3.7138,2.36726 5.1387,3.693364 3.9725,3.693719 7.436,8.366728 12.0566,11.236328 1.5969,0.990131 4.4032,2.34546 6.3242,2.033203 2.253,-0.365618 3.1852,-2.934002 1.5547,-4.564453 -1.162,-1.160095 -2.0439,-0.495669 -4.125,-1.697266 -2.5752,-1.488163 -5.9876,-4.614292 -7.707,-7.02539 l 5.5332,-3.714846 c 4.0158,-2.42494 8.5464,-3.99714 13.2422,-4.24023 h 1.5801 c 4.5632,0.24506 7.713,0.89364 11.8574,2.96679 3.0614,1.52966 5.3547,3.27831 7.9062,5.527348 1.4506,1.276691 3.5258,3.614285 4.6582,5.19336 3.0574,4.258946 5.3068,9.395683 5.9571,14.625 l 0.2715,4.347656 0.1796,2.173828 -3.1621,59.486328 v 1.185547 c 0,0.602775 -0.057,1.228323 0.3164,1.7441405 1.0238,1.4150399 3.3835,1.5728012 4.4961,0.1953125 0.7888,-0.974323 0.7109,-2.154266 0.7227,-3.322266 l 0.1973,-3.953125 2.9062,-54.884765 -0.1406,-2.033203 c -0.041,-3.731278 -0.4391,-7.463596 -1.4668,-11.066407 -2.9051,-10.183931 -9.8605,-18.317554 -19.0859,-23.380864 -4.0594,-2.22927 -9.7558,-4.2317 -14.4278,-4.2871 h -3.1621 c -4.925,0.008 -10.1075,1.97188 -14.4258,4.20117 -1.5198,0.78458 -4.1794,2.53649 -5.5351,3.58789 -0.51,0.39527 -1.7526,1.5747 -2.3711,1.52734 -0.5236,-0.0395 -1.881,-1.26129 -2.3711,-1.63086 -1.7314,-1.29844 -3.6181,-2.56819 -5.5332,-3.58008 -4.2213,-2.2273 -9.6114,-4.09718 -14.4278,-4.10546 z m 517.99219,13.24023 -1.57812,0.316406 -0.20118,2.253906 v 6.125 h -16.20507 v 8.697266 h 16.40234 c 0,9.563363 0.70773,19.528425 -4.01367,28.259766 -2.03562,3.766853 -4.8248,7.19504 -8.4375,9.548828 -1.01385,0.660088 -2.04352,1.25041 -3.16211,1.714844 -0.46049,0.191703 -1.50071,0.503246 -1.77344,0.892578 -0.24728,0.351784 -0.20312,1.055567 -0.20312,1.480468 v 8.300782 c 7.91116,-2.310304 14.40931,-6.174046 19.64257,-12.648438 1.24903,-1.547453 2.87341,-3.922148 3.67969,-5.730468 l 1.54297,2.568359 1.70117,2.371094 c 3.18582,4.087015 7.11364,7.44963 11.57813,10.078125 1.86959,1.100806 4.77963,2.636753 6.91601,2.966796 v -8.300781 c 0,-0.40712 0.0517,-1.109362 -0.19531,-1.443359 -0.21938,-0.296446 -1.20255,-0.690901 -1.58398,-0.900391 -0.94468,-0.51977 -2.30836,-1.396621 -3.16211,-2.050781 -3.26487,-2.496081 -5.83802,-5.972634 -7.65821,-9.636719 -4.3874,-8.830158 -3.60547,-17.952794 -3.60547,-27.470703 h 15.41407 v -8.697266 h -15.41407 v -8.695312 z m -148.93555,0.767578 c -0.64403,0.0084 -1.28132,0.05667 -1.85742,0.220703 v 9.486328 19.367188 19.171875 17.390625 3.556641 c 0,0.393287 -0.0459,1.148657 0.20117,1.46289 0.26682,0.33598 0.79626,0.308593 1.18164,0.316406 h 7.90625 c 0.3933,0 1.14672,0.04587 1.46094,-0.201172 0.50002,-0.397238 0.31641,-3.044432 0.31641,-3.751953 v -12.054687 -53.16211 c -0.002,-1.332028 0.0975,-1.751595 -1.38281,-1.779296 h -5.92969 c -0.60278,0 -1.25246,-0.03184 -1.89649,-0.02344 z m -185.0625,0.02344 -1.66601,0.230468 -0.3086,1.152344 v 3.75586 16.599609 h -16.20703 v 7.708984 c 0,0.393285 -0.0459,1.148659 0.20118,1.462891 0.39717,0.500007 3.04449,0.314453 3.75195,0.314453 h 12.2539 v 39.724609 h 10.86915 v -48.617187 -15.019531 c -10e-6,-1.636388 0.17623,-5.994303 -0.19727,-7.3125 z m 370.36133,0 c -0.39327,0 -1.14866,-0.04586 -1.46289,0.201172 -0.50001,0.397234 -0.3164,3.044433 -0.3164,3.751953 v 12.648437 54.347656 h 10.87109 v -48.617187 -15.019531 c 0,-1.636388 0.1743,-5.994303 -0.19922,-7.3125 z m 88.53906,0 v 70.949218 h 10.86915 v -34.189453 h 9.28906 v -9.882812 h -9.28906 v -25.097657 l -0.31055,-1.548828 -2.85156,-0.230468 z m -403.16796,0.02148 -2.96485,0.230469 c -3.31225,0.397232 -6.69812,1.317779 -9.28515,3.53125 -2.30244,1.972359 -3.72112,4.618386 -3.75782,7.679687 -0.0297,2.596874 0.0713,4.217111 1.47461,6.521485 1.24504,2.043506 3.08803,3.488312 5.24414,4.484375 4.92688,2.274735 10.5239,1.839843 15.81055,1.839843 h 24.90234 c 4.14247,-0.0059 9.34243,-1.087264 12.45118,-3.970703 5.52767,-5.128524 4.51356,-13.921674 -1.97657,-17.767578 -2.37358,-1.405158 -5.17704,-2.078675 -7.90625,-2.365234 h -1.97461 l -2.17578,-0.183594 h -4.34765 -16.59961 z m -85.87305,1.154297 c -0.50024,-0.01334 -1.01838,0.0098 -1.28125,0.0098 h -6.7207 c -0.39316,0 -1.14675,-0.04587 -1.46094,0.201172 -0.49804,0.393286 -0.31641,2.866931 -0.31641,3.554688 v 11.066406 11.06836 c -0.01,5.802452 -2.18442,13.004073 -5.11133,17.984374 -2.09881,3.571199 -5.14156,6.986723 -8.72265,9.117188 -1.15815,0.689732 -1.89719,1.101672 -3.16211,1.591797 -0.47626,0.183797 -1.49281,0.452324 -1.77539,0.853515 -0.24778,0.351785 -0.20117,1.057538 -0.20117,1.480469 v 8.300781 l 3.95117,-1.195312 c 5.53549,-2.029672 10.83044,-5.495521 14.78906,-9.873047 3.1799,-3.51586 3.84399,-5.032846 6.16016,-8.892578 2.80438,6.509966 9.41398,12.584938 15.41601,16.166016 2.18181,1.302389 5.59545,3.044677 8.10352,3.398437 v -9.880859 c -0.88942,-0.252969 -1.55289,-0.624059 -2.37305,-1.03711 -5.05734,-2.545489 -9.19121,-7.181313 -11.70898,-12.203125 -2.36187,-4.711521 -3.53844,-9.180631 -3.92188,-14.427734 l -0.17969,-2.371094 v -7.115234 -16.007813 c 0,-0.454553 0.0748,-1.267844 -0.3164,-1.578125 -0.18681,-0.148228 -0.66773,-0.197598 -1.16797,-0.210937 z m 257.41797,0.404297 v 32.214844 h 59.48633 v -9.091797 h -48.61719 v -23.123047 z m -56.42578,0.390625 c -0.4926,-0.01729 -1.00356,0.0059 -1.28321,0.0059 h -6.32422 -30.23828 c -0.5751,0.002 -1.40978,-0.08843 -1.77343,0.457031 -0.24314,0.365618 -0.20313,1.086719 -0.20313,1.519532 v 5.335937 c 0,0.399215 -0.0274,1.177583 0.14648,1.523438 0.26878,0.533596 0.92765,0.449336 1.43555,0.453125 h 15.2168 13.63672 v 17.58789 h -28.65625 c -0.45455,0 -1.23659,-0.08076 -1.54688,0.310547 -0.28059,0.357712 -0.23242,1.219368 -0.23242,1.666016 v 6.324218 27.273438 c 0.002,1.355751 -0.15675,1.948884 1.38477,1.976562 h 9.68359 36.5625 v -7.509765 c 0,-0.454553 0.0749,-1.267842 -0.31641,-1.578125 -0.36561,-0.288547 -1.75192,-0.201172 -2.2539,-0.201172 h -6.12696 -18.57617 c -1.99409,0 -7.93293,0.180212 -9.48633,-0.197266 l 0.19727,-6.521484 v -8.103516 l -0.19727,-4.347656 h 30.43555 v -34.191406 c 0,-0.454552 0.0808,-1.236595 -0.31055,-1.546875 -0.20652,-0.162056 -0.68123,-0.219035 -1.17382,-0.236328 z m 236.26953,0.40039 v 9.289063 h 31.22461 c -0.33004,1.164047 -0.19727,2.721881 -0.19727,3.953125 v 6.916015 22.728516 c 0,0.454554 -0.0749,1.265892 0.31641,1.576172 0.37351,0.296456 1.92546,0.201172 2.45117,0.201172 h 6.32422 c 1.35575,-0.002 1.94874,0.158712 1.97656,-1.382813 v -9.089843 -34.191407 z m -351.38867,6.341797 h 10.47461 19.5664 c 1.64825,-0.01581 4.27461,0.238225 5.51172,1.408203 1.41314,1.334012 1.23004,3.401425 -0.38281,4.478516 -1.20941,0.808311 -2.92078,1.011778 -4.33985,1.013672 h -30.23632 c -1.47435,-0.002 -3.32564,-0.214036 -4.54297,-1.115235 -1.49814,-1.106734 -1.63823,-3.306216 -0.18164,-4.507812 1.18774,-0.976299 2.69404,-1.032288 4.13086,-1.277344 z m -19.56446,18.560547 v 8.498047 h 27.66797 c 0.50195,0.002 1.28086,-0.06304 1.66016,0.316406 0.51982,0.517795 0.3164,3.400441 0.3164,4.228516 h -24.50586 v 8.300781 h 49.20899 v 2.767578 h -49.20899 v 19.169922 h 61.85743 v -6.324219 c -0.004,-1.52769 0.0266,-1.767434 -1.58008,-1.779296 h -10.27735 -38.93359 v -3.16211 h 47.43164 c 0.39327,0 1.1487,0.04587 1.46289,-0.201172 0.50396,-0.399213 0.31641,-3.221936 0.31641,-3.949218 v -13.042969 c 0,-0.450593 0.0806,-1.236664 -0.3086,-1.541016 -0.35976,-0.282609 -1.96485,-0.238042 -2.45898,-0.257812 h -4.34766 -15.41601 c -0.33799,0.02173 -1.3526,0.09486 -1.60156,0 -0.39363,-0.302378 -0.36317,-0.960113 -0.375,-1.363282 v -3.162109 h 29.64453 v -8.498047 z m -203.95511,0.214844 c -0.6996,-0.03953 -1.2987,0.07446 -1.9765,0.220703 -4.0476,0.873531 -6.5215,4.192522 -6.5215,8.259766 v 20.552734 h 2.5683 v -19.564453 c 0,-1.20555 0.1047,-2.465724 0.6719,-3.556641 1.247,-2.401219 4.2192,-3.877013 6.8379,-2.873047 0.7371,0.280636 1.5851,0.782687 2.1563,1.326172 3.5495,3.383442 1.529,9.586423 -3.9356,10.044922 0,0.517794 -0.097,2.054281 0.1973,2.421875 0.255,0.316209 1.4687,0.495472 1.9765,0.714844 1.0909,0.468385 2.112,1.382636 2.7266,2.396484 1.2569,2.073151 0.832,6.595737 0.832,9.089844 h 2.5684 V -48.5 c -0.012,-2.553395 -1.4751,-5.298149 -3.7539,-6.521484 1.247,-0.942702 2.4044,-2.113931 3.0586,-3.556641 0.4506,-0.992108 0.6823,-2.077114 0.6504,-3.162109 0.053,-0.709497 0.077,-1.691221 0,-2.373047 -0.749,-3.899259 -4.2167,-6.481801 -8.0567,-6.701172 z m 17.6895,0.05078 c -3.8965,0.462078 -7.4067,3.627618 -7.4141,8.232422 v 11.066406 c 0,3.069213 -0.2867,5.335069 1.8438,7.90625 4.9664,5.992174 14.6868,2.482348 14.7578,-5.335937 h -2.5684 c -0.2885,1.533612 -0.5144,2.546472 -1.6172,3.746093 -2.4723,2.687786 -6.3428,2.459172 -8.5839,-0.386718 -1.7235,-2.185801 -1.2618,-5.634734 -1.2618,-8.300782 h 14.0313 v -5.730468 c 0,-3.517836 0.3233,-6.088864 -2.4297,-8.835938 -1.9439,-1.941724 -4.4199,-2.638575 -6.7578,-2.361328 z m 0.5332,2.677734 c 1.978,-0.105485 4.0196,0.750886 5.1836,2.589844 1.2906,2.039549 0.9023,6.601651 0.9023,9.091797 h -11.4629 c 0,-2.282635 -0.317,-6.535575 0.5723,-8.498047 0.9121,-2.009909 2.8267,-3.078108 4.8047,-3.183594 z m 567.75194,0.810547 v 25.69336 h -13.04296 v 9.089843 h 50.59374 v -9.089843 h -26.08789 v -25.69336 z m -196.83984,10.47461 v 9.091797 h 14.625 v 20.355468 h 11.26367 v -20.355468 h 18.77539 v 20.355468 h 9.6836 l 1.46289,-0.201172 0.3164,-1.18164 v -3.359375 -15.613281 h 14.42774 v -9.091797 z m -405.5391,19.583984 c -0.8223,-0.04743 -2.1783,0.192299 -2.9648,0.449219 -3.9289,1.282627 -5.7186,4.684263 -5.7305,8.623047 v 18.1835935 c 0,0.3932861 -0.046,1.1467031 0.2012,1.4609375 0.3518,0.4446704 2.0114,0.4446704 2.3633,0 0.2478,-0.3142344 0.2012,-1.0676514 0.2012,-1.4609375 V -19.843753 -28.3418 c 0,-1.124522 0.031,-1.929256 0.5605,-2.964844 2.1561,-4.211515 7.6499,-4.169648 10.0176,-0.197265 0.6475,1.086971 0.6875,1.944701 0.6875,3.162109 v 18.3808595 c 0,0.3932861 -0.046,1.1467031 0.2011,1.4609375 0.3656,0.4604805 1.9854,0.3164062 2.5665,0.3164062 V -28.144531 c -0.01,-4.952632 -2.9692,-8.779771 -8.1036,-9.072266 z m 18.5782,0.02148 c -2.1503,-0.0091 -4.2986,0.77035 -5.8965,2.365234 -1.6721,1.669984 -2.4043,3.771583 -2.4043,6.09375 v 10.671875 c 0,3.225336 -0.3542,5.392014 1.8711,8.1035155 4.6878,5.7115366 14.7048,2.8459887 14.7285,-5.3359375 h -2.5684 c -0.168,1.195662 -0.5008,2.394935 -1.2636,3.359375 -2.2253,2.808341 -6.1333,3.0468343 -8.5821,0.386719 -2.1521,-2.337979 -1.6172,-5.754652 -1.6172,-8.6875 h 14.0313 V -26.5625 c 0,-3.249059 0.1885,-5.76952 -2.3887,-8.267578 -1.6077,-1.558322 -3.7599,-2.356094 -5.9101,-2.365234 z m 25.8886,0.93164 c -0.5029,0 -1.0057,0.111649 -1.1816,0.333984 -0.2135,0.264826 -0.1893,0.746244 -0.2012,1.066407 v 5.533203 5.138672 8.300781 c 0,1.264835 -0.048,2.009918 -0.6582,3.162109 -2.0514,3.8755484 -7.1384,4.1807806 -9.6582,0.591797 -0.8142,-1.158118 -0.9492,-2.191014 -0.9492,-3.55664 V -31.70118 c 0,-3.962506 0.4121,-4.614141 -1.5801,-4.541016 -0.4664,0.01779 -0.458,0.02138 -0.8711,0.197266 -0.502,0.699616 -0.3144,1.73045 -0.3144,2.564453 v 6.126953 8.695313 c 0,1.863661 -0.1366,3.932001 0.3476,5.732422 0.9012,3.3597313 4.0704,5.8862289 7.5567,5.9277341 h 0.791 c 1.7965,-0.00791 3.0687,-0.4272333 4.5449,-1.46875 0.4644,-0.3280675 1.7985,-1.6855471 2.1641,-1.6855471 0.3913,0.002 1.5396,1.2617992 1.9863,1.5878909 1.3498,0.9901324 2.8709,1.5471735 4.5449,1.5214843 0.6759,0.053367 1.5176,0.073114 2.1738,0 4.5061,-0.8596952 6.7089,-4.7523772 6.7207,-9.0449222 V -34.46875 c 0,-0.393286 0.046,-1.146703 -0.2011,-1.460938 -0.3519,-0.44467 -2.0134,-0.44467 -2.3653,0 -0.2476,0.314235 -0.2011,1.067652 -0.2011,1.460938 v 18.775391 c -0.01,3.173951 -2.0455,5.8171118 -5.336,6.0898434 -2.1682,0.1798444 -4.5443,-1.3835034 -5.4316,-3.3222654 -0.4684,-1.02373 -0.4981,-1.674683 -0.4981,-2.767578 V -34.46875 c 0,-0.393286 0.046,-1.146703 -0.2011,-1.460938 -0.1759,-0.222335 -0.6787,-0.333984 -1.1817,-0.333984 z m -25.7636,1.771484 c 1.5524,0.02841 3.09,0.633538 4.1562,1.820313 1.012,1.126492 1.4315,2.648601 1.4492,4.132813 v 5.730468 h -11.4629 c 0,-2.984225 -0.6041,-7.819622 1.6172,-10.042968 1.1216,-1.120569 2.6879,-1.669035 4.2403,-1.640626 z m 584.9316,33.726563 c -1.3787,-0.0901692 -2.79476,0.29455508 -3.80664,1.15820312 -1.70754,1.45653558 -1.96821,4.52199478 -1.99414,6.64257808 l 0.16406,6.7187498 c 0.16404,1.628481 0.1997,2.988168 1.32422,4.330078 1.73718,2.075128 5.61819,2.268632 7.53711,0.347657 1.18382,-1.183806 1.4433,-2.692272 1.44922,-4.283203 h -3.16211 c -0.26279,3.092928 -2.3238,3.018589 -3.1914,1.933593 -0.68582,-0.859695 -0.76172,-2.452391 -0.76172,-3.513672 V 6.4414062 c 0.002,-0.9268896 0.0661,-2.0992652 0.42382,-2.9609374 0.49211,-1.1818342 1.87164,-1.6931643 2.82422,-0.7109376 0.54151,0.5553435 0.644,1.358586 0.70508,2.0917969 h 3.16211 c -0.002,-1.4644471 -0.10559,-2.7438372 -1.09375,-3.93554685 -0.86069,-1.03657595 -2.20137,-1.60123705 -3.58008,-1.69140625 z m -382.08984,0.0117188 c -0.76689,0.0691702 -1.46436,0.12496434 -2.17383,0.4609375 -1.72342,0.81621657 -2.43966,2.393265 -2.75195,4.1660156 -0.37551,2.1423233 -0.22473,6.5289091 -0.21289,8.8925781 0.006,1.142308 0.23675,3.116779 0.69726,4.150391 0.87746,1.97433 2.73108,2.932634 4.83594,2.847656 1.91106,-0.07905 3.4976,-0.861834 4.36523,-2.650391 0.93287,-1.924928 0.77344,-4.245139 0.77344,-6.324219 0,-3.5198058 0.83448,-9.7777399 -3.35937,-11.24218695 -0.68378,-0.23912492 -1.45453,-0.29450693 -2.17383,-0.30078125 z m 300.94531,0.007813 c -1.33078,-0.12796635 -2.70902,0.18711735 -3.70508,0.96875 -1.77275,1.38934 -2.1518,3.9008998 -2.17773,6.0214843 l 0.14258,8.1035159 c 0.18775,1.440733 0.34206,2.562266 1.31836,3.748047 1.88737,2.288569 5.87996,2.195683 7.78711,0 0.97629,-1.120562 1.21294,-2.50851 1.22656,-3.947265 h -3.16211 c -0.087,0.608703 -0.17743,1.249761 -0.53711,1.769531 -1.04547,1.501998 -3.08196,0.991376 -3.42187,-1.769531 v -1.580079 c -0.168,-2.280663 -0.24705,-3.6193788 0,-5.9296876 0.0711,-1.0355881 -0.10373,-1.6806285 0.24804,-2.765625 0.42886,-1.3181987 1.67739,-2.269216 2.87696,-1.1308594 0.60277,0.5731305 0.72341,1.3384983 0.83398,2.1191406 h 3.16211 c -0.004,-1.4604931 -0.21337,-2.7440223 -1.17188,-3.9199218 -0.80535,-0.98914388 -2.08913,-1.55953365 -3.41992,-1.6875 z m -337.11133,0.0722656 c -3.21742,0.0375488 -4.86724,2.2785818 -4.93945,5.3359375 -0.0296,1.3142471 0.16302,3.0819708 1.08984,4.0859375 1.35573,1.4683946 4.47066,1.7481886 5.48438,3.2343756 0.83804,1.231242 0.761,4.022318 -0.8457,4.617187 -0.96447,0.357712 -2.01518,-0.131564 -2.39258,-1.070312 -0.17,-0.422931 -0.15167,-0.98306 -0.37695,-1.261719 -0.27264,-0.337948 -0.79027,-0.308545 -1.18165,-0.316406 -0.41304,-0.0059 -1.33992,-0.05377 -1.66015,0.201172 -0.79447,0.634397 0.23414,3.312945 0.74804,3.941406 1.27476,1.561282 2.83203,1.611581 4.66602,1.589844 3.32018,-0.0415 4.72757,-1.978548 4.74414,-5.138672 0.008,-1.666031 0.1485,-3.589708 -1.0332,-4.9335944 -0.90516,-1.0257069 -2.45998,-1.5427299 -3.71094,-2.0625 -0.71539,-0.2964473 -1.55009,-0.6028866 -1.94336,-1.3222656 -0.26044,-0.4782664 -0.24313,-1.2241612 -0.22656,-1.7617187 0.0652,-2.2273037 1.96599,-2.5747946 2.87695,-1.6933594 0.56706,0.5494148 0.63908,1.3507042 0.67578,2.0898437 h 3.36133 l -0.5039,-2.7675781 c -0.81425,-2.27868314 -2.63638,-2.79326729 -4.83204,-2.7675781 z m 213.77149,0.1640625 c -1.45827,-0.006917 -2.96215,0.0351562 -3.69141,0.0351562 V 19.484375 h 5.13867 c 0.71938,-0.002 1.27893,0.02434 1.97657,-0.21875 4.10677,-1.426892 3.35937,-7.213589 3.35937,-10.6503906 v -2.765625 c -0.006,-1.3320342 -0.25317,-3.014011 -0.98242,-4.1503906 -0.55337,-0.86561799 -1.39868,-1.6151522 -2.37695,-1.95507818 -0.55238,-0.19170231 -1.96556,-0.24698896 -3.42383,-0.25390624 z m -199.54297,0.0351562 V 19.484375 h 8.39648 v -2.962891 h -1.28125 -3.95312 v -5.535156 h 4.54492 V 8.0234375 h -4.54492 V 2.4882812 h 3.55664 1.67773 v -2.96289058 z m 36.36328,0 V 14.544922 c 0.002,1.557334 0.23798,2.765877 1.41992,3.910156 2.28456,2.211494 6.61277,1.578822 8.16016,-1.144531 0.90326,-1.592907 0.69726,-4.121385 0.69726,-5.927735 V -0.47460938 h -3.35937 V 14.148438 c -0.004,0.618585 0.0277,1.224208 -0.34375,1.757812 -0.68378,0.990132 -2.10207,1.112553 -2.88672,0.175781 -0.56753,-0.679851 -0.52539,-1.502026 -0.52539,-2.328125 V -0.47460938 Z m 19.56641,0 V 19.484375 h 8.49804 v -2.962891 h -1.38281 -3.95312 V -0.47460938 Z m 47.6289,0 V 19.484375 h 8.39649 v -2.962891 h -1.28125 -3.95313 v -5.535156 h 4.54492 V 8.0234375 h -4.54492 V 2.4882812 h 3.55664 1.67774 v -2.96289058 z m 17.39258,0 V 19.484375 h 3.16211 V 8.0234375 l 2.33203,5.7304685 2.21289,5.730469 h 2.96485 V -0.47460938 h -3.16211 V 10.986328 l -3.47852,-8.6953124 c -1.07709,-2.6937056 -0.8563,-2.75579916 -2.45117,-2.76562498 z m 20.1582,0 V 19.484375 h 8.39649 v -2.962891 h -1.2832 -3.95118 v -5.535156 h 4.54493 V 8.0234375 h -4.54493 V 2.4882812 h 3.55664 1.67774 v -2.96289058 z m 15.81055,0 2.84375,15.4140619 0.59375,3.162109 0.46094,1.1875 1.04101,0.195313 h 0.98829 l 1.03906,-0.195313 0.82226,-3.361328 2.0918,-10.8691397 1.26953,6.3242177 1.49805,8.101563 h 3.55664 l 2.81641,-15.414062 0.74023,-4.5449219 h -3.55664 l -0.5625,4.9394532 -1.2168,9.4863277 -2.05273,-10.8691403 c -0.12451,-0.6679934 -0.39298,-2.99175655 -0.85742,-3.3613281 -0.31225,-0.24703292 -1.04816,-0.1953125 -1.4375,-0.1953125 h -1.97657 l -1.66406,9.0898438 -0.9043,5.5332031 -1.01757,-6.9160156 -0.95899,-7.7070313 z m 58.30078,0 V 19.484375 h 8.39649 v -2.962891 h -1.28321 -3.95117 v -5.535156 h 4.54492 V 8.0234375 h -4.54492 V 2.4882812 h 3.55664 1.67774 v -2.96289058 z m 17.39063,0 V 19.484375 h 3.35937 V 8.4179688 l 3.36133,8.3007812 c 1.02372,2.561295 0.85489,2.753765 2.56836,2.765625 h 1.38281 V -0.47460938 h -3.16211 V 10.789062 l -3.4375,-8.4980464 c -1.06325,-2.6581314 -0.87558,-2.75579916 -2.49023,-2.76562498 z m 19.16992,0 v 2.9882888 h 1.58203 c 0.31819,-0.027678 1.15727,-0.098815 1.4043,0 0.4249,0.3162102 0.37263,1.1198747 0.375,1.5566406 V 6.6386719 19.484375 h 3.16211 V 2.4882812 c 0.58498,0 2.83973,0.1168464 3.18164,-0.3535156 0.2708,-0.375499 0.17773,-2.07774609 0.17773,-2.60937498 z m 21.54297,0 -3.53125,14.6230469 -1.21289,5.335937 h 3.35937 c 0.13243,-0.703568 0.52053,-3.217764 0.93555,-3.634766 0.52373,-0.523723 3.55252,-0.316406 4.40234,-0.316406 0.0573,0.705543 0.42373,3.358621 0.93164,3.755859 0.39922,0.310278 2.60612,0.195313 3.2168,0.195313 l -4.74219,-19.9589839 z m 16.00781,0 V 19.484375 h 8.49805 v -2.962891 h -5.13867 V -0.47460938 Z m 46.83789,0 V 19.484375 h 8.49805 v -2.962891 h -5.13867 V -0.47460938 Z m 16.9961,0 V 19.484375 h 3.36132 V -0.47460938 Z m 12.64843,0 V 19.484375 h 3.36133 V 8.2207031 l 3.35938,8.3007809 c 1.09488,2.735211 0.83514,2.951031 2.56836,2.962891 h 1.58203 V -0.47460938 h -3.36133 V 10.789062 l -3.29492,-8.3007808 c -0.94666,-2.55536634 -0.88378,-2.95102856 -2.63282,-2.96289058 z m 20.35742,0 V 19.484375 h 3.16211 V -0.47460938 Z m -302.17773,0.03125 V 19.484375 h 3.35938 v -8.101563 c 1.78261,0.02372 1.62162,0.316095 2.23828,2.173829 l 1.2539,3.953125 c 0.12847,0.393285 0.42283,1.38933 0.67383,1.666015 0.45652,0.498031 2.63029,0.308594 3.34375,0.308594 l -2.96484,-8.892578 c 2.59884,-1.2332127 2.71143,-5.0492564 2.16992,-7.5097658 -0.20949,-0.9604868 -0.60396,-2.0141343 -1.39844,-2.64062495 -0.49012,-0.38735746 -1.3424,-0.7444482 -1.95703,-0.88476563 z m -62.05664,2.6210938 c 1.97238,0.037549 2.06485,1.5128862 2.19922,3.078125 0.21344,2.7688124 0.28459,5.5319671 0,8.3007811 -0.11862,1.254958 -0.0972,3.101683 -1.80469,3.257812 -1.80049,0.164034 -2.10753,-1.708749 -2.17383,-3.060547 l -0.19726,-2.767578 0.18164,-5.5332025 c 0.11661,-1.4763056 0.10322,-2.8386259 1.79492,-3.2753906 z m 66.80469,0.2167968 c 0.57757,-0.00494 1.1449,0.1068145 1.52929,0.4082032 0.99428,0.7806423 0.99073,4.2162892 0.11524,5.0917968 -0.68378,0.6838045 -2.12225,0.5234376 -3.0332,0.5234376 L -805.21484,2.6875 c 0.42197,-0.1650199 1.01031,-0.2880285 1.58789,-0.2929688 z m 112.08593,0.023438 c 0.56177,0.043479 1.0973,0.1901038 1.46094,0.5507812 0.68182,0.673921 0.86316,3.0980138 0.875,4.0664062 l -0.11328,6.3242189 c -0.0889,0.662064 -0.1236,1.569169 -0.41016,2.166016 -0.4842,1.009891 -1.26589,0.989878 -2.24218,0.996093 h -1.18555 V 2.4882812 c 0.46641,-0.054349 1.05347,-0.1137914 1.61523,-0.070312 z M -1089.0293,3.0625 c -0.6098,0 -1.0996,0.4917556 -1.0996,1.1015625 0,0.6098069 0.4898,1.1015625 1.0996,1.1015625 h 46.3633 c 0.6098,0 1.0996,-0.4917556 1.0996,-1.1015625 0,-0.6098069 -0.4898,-1.1015625 -1.0996,-1.1015625 z m 471.76172,1.5996094 1.38477,7.9062496 h -3.16211 l 1.02734,-4.9414059 z m -39.32812,3.3613281 h 0.19726 v 0.1972656 z m -427.5469,8.6835935 c -0.6099,0 -1.1015,0.489803 -1.1015,1.09961 0,0.609807 0.4916,1.101562 1.1015,1.101562 h 36.5899 c 0.6098,0 1.1015,-0.491755 1.1015,-1.101562 0,-0.609807 -0.4917,-1.09961 -1.1015,-1.09961 z m 6.6114,14.056641 c -0.6098,0 -1.0997,0.491755 -1.0997,1.101562 0,0.609807 0.4899,1.101563 1.0997,1.101563 h 24.2207 c 0.6097,0 1.1015,-0.491756 1.1015,-1.101563 0,-0.609807 -0.4918,-1.101562 -1.1015,-1.101562 z"
         transform="matrix(0.84471331,0,0,0.84471331,-322.57408,-16.717382)"
         sodipodi:nodetypes="ccccccccccccccscccccccccccccccccccccccccccscccssccccccccccccccccscccccscsscccccccccscccccsccscscccssccccccscsccccsccscsccccscscccccccccccccccccscccccccccssscsccsccssccccccccccccssscccccccsscccsscccccscscccccscscscccccscscccscscsccccccccccccccccccccccccccccccccscsscccccccccccsscccccccccsccccccccscscccccccscssccccsccccccccccccccccccccccccccccsccsccccssccccscssccccsccsssscccccccssccscscccccccccsccscsssscsssccccssccccccccsccccccscscccccsccsccccccccccccccccsscsccsccccccccccccccssccccscccscccccccccccccccccccscccccsccccccccccccccccccccccccccccccccccccccccccccccccccccccccccccccccccccccccsccccccccccccccccccccccccccccccccccccccccccccccccccccccccccccccccccccccccccccccccccccccccccccccccccccccccccccccccccscsccsscccccccsssssssscccccccccssssssssssssss" />
    </g>
  </g>
</svg>
